<svg width="230" height="24" viewBox="0 0 230 24" fill="none" xmlns="http://www.w3.org/2000/svg">
<path d="M11.4821 0.000244141H0V3.31939H11.4821C17.0955 3.31939 20.6677 6.63854 20.6677 12.0854C20.6677 17.5322 17.1806 20.8513 11.4821 20.8513H3.48714V9.78748H11.312C13.0981 9.78748 14.2037 10.6385 14.2037 12.2556C14.2037 13.7875 13.0981 14.7236 11.312 14.7236H10.3764V11.9151H6.97429V17.9577H11.312C14.8841 17.9577 17.6058 15.6598 17.6058 12.1705C17.6058 8.25556 14.7991 6.38322 11.312 6.38322H0V24.0002H11.4821C19.0517 24.0002 24.0698 19.1492 24.0698 11.9151C24.0698 4.85131 19.0517 0.000244141 11.4821 0.000244141Z" fill="#FCF2E6"/>
<path d="M41.3344 10.8519H33.4297V23.8149H41.3344C46.496 23.8149 48.6075 21.1853 48.6075 17.3519C48.6075 13.2038 46.0809 10.8519 41.3344 10.8519ZM41.533 21.0556H36.9128V13.6112H41.533C44.0957 13.6112 45.1244 15.389 45.1244 17.3334C45.1244 19.3149 43.9693 21.0556 41.533 21.0556Z" fill="#FCF2E6"/>
<path d="M62.148 23.8149H65.7394L59.2784 10.8519H55.1817L48.7388 23.8149H52.3483L53.6477 21.1112H60.8305L62.148 23.8149ZM54.8749 18.5742L57.1849 13.7964H57.2571L59.5852 18.5742H54.8749Z" fill="#FCF2E6"/>
<path d="M78.8944 10.8519V20.1112H78.8222L71.3506 10.8519H67.1275V23.8149H70.4662V14.5556H70.5384L78.01 23.8149H82.2331V10.8519H78.8944Z" fill="#FCF2E6"/>
<path d="M90.9241 16.926L98.4498 10.8519H93.7034L88.1267 15.4816H88.0545V10.8519H84.7519V23.8149H88.0545V18.6297H88.1267L94.4794 23.8149H99.4063L90.9241 16.926Z" fill="#FCF2E6"/>
<path d="M107.438 24.0001C112.437 24.0001 115.596 21.426 115.596 17.3334C115.596 13.2408 112.437 10.6667 107.438 10.6667C102.439 10.6667 99.281 13.2408 99.281 17.3334C99.281 21.426 102.439 24.0001 107.438 24.0001ZM107.438 21.2593C104.533 21.2593 102.728 19.6482 102.728 17.3334C102.728 15.0186 104.533 13.4075 107.438 13.4075C110.362 13.4075 112.149 15.0186 112.149 17.3334C112.149 19.6482 110.362 21.2593 107.438 21.2593Z" fill="#FCF2E6"/>
<path d="M131.282 21.7408V20.0556C131.282 18.889 130.723 17.9445 129.225 17.7779V17.7038C130.506 17.389 131.571 16.4445 131.571 14.6482C131.571 12.6482 130.362 10.8519 126.879 10.8519H117.657V23.8149H120.941V19.2408H126.229C127.312 19.2408 127.799 19.7038 127.799 20.5927V21.9816C127.799 22.7593 127.962 23.389 128.214 23.8149H131.625V23.4816C131.373 22.963 131.282 22.463 131.282 21.7408ZM126.301 16.5742H120.941V13.5556H126.301C127.366 13.5556 128.106 14.0186 128.106 15.0927C128.106 16.1112 127.402 16.5742 126.301 16.5742Z" fill="#FCF2E6"/>
<path d="M146.763 10.8519H138.859V23.8149H146.763C151.925 23.8149 154.037 21.1853 154.037 17.3519C154.037 13.2038 151.51 10.8519 146.763 10.8519ZM146.962 21.0556H142.342V13.6112H146.962C149.525 13.6112 150.553 15.389 150.553 17.3334C150.553 19.3149 149.398 21.0556 146.962 21.0556Z" fill="#FCF2E6"/>
<path d="M159.506 23.8149V10.8519H156.095V23.8149H159.506Z" fill="#FCF2E6"/>
<path d="M169.705 16.3519V18.7779H174.596C174.271 20.463 172.195 21.2223 169.939 21.2223C167.341 21.2223 165.031 20.2408 165.031 17.4445C165.031 14.889 167.142 13.5371 169.958 13.5371C172.159 13.5371 173.729 14.0556 174.289 15.1853H177.808C177.303 12.1853 173.82 10.6667 169.849 10.6667C165.067 10.6667 161.565 13.2408 161.565 17.426C161.565 21.8705 165.355 24.0001 169.976 24.0001C174.542 24.0001 178.169 21.7223 178.169 17.6112V16.3519H169.705Z" fill="#FCF2E6"/>
<path d="M183.616 23.8149V10.8519H180.205V23.8149H183.616Z" fill="#FCF2E6"/>
<path d="M200.01 10.8519H185.373V13.6667H190.986V23.8149H194.397V13.6667H200.01V10.8519Z" fill="#FCF2E6"/>
<path d="M212.008 23.8149H215.599L209.138 10.8519H205.042L198.599 23.8149H202.208L203.508 21.1112H210.691L212.008 23.8149ZM204.735 18.5742L207.045 13.7964H207.117L209.445 18.5742H204.735Z" fill="#FCF2E6"/>
<path d="M220.417 21.0001V10.8519H216.988V23.8149H230V21.0001H220.417Z" fill="#FCF2E6"/>
<path d="M35.555 0.0814997C36.3254 0.0814997 36.9611 0.332654 37.4622 0.834962C37.9686 1.33235 38.2218 1.943 38.2218 2.66691C38.2218 3.39083 37.9686 4.00394 37.4622 4.50625C36.9611 5.00363 36.3254 5.25232 35.555 5.25232H33.4297V0.0814997H35.555ZM35.555 4.88298C36.2123 4.88298 36.751 4.67122 37.1712 4.2477C37.5915 3.81927 37.8016 3.29233 37.8016 2.66691C37.8016 2.04149 37.5915 1.51702 37.1712 1.0935C36.751 0.665064 36.2123 0.450844 35.555 0.450844H33.858V4.88298H35.555Z" fill="#FCF2E6"/>
<path d="M44.174 4.88298H47.0024V5.25232H43.7457V0.0814997H46.962V0.450844H44.174V2.46008H46.76V2.82942H44.174V4.88298Z" fill="#FCF2E6"/>
<path d="M54.2286 5.33358C53.706 5.33358 53.2615 5.22524 52.8952 5.00855C52.5342 4.78695 52.2891 4.48901 52.1598 4.11474L52.5316 3.9153C52.6339 4.23539 52.8279 4.48901 53.1134 4.67614C53.4043 4.86328 53.776 4.95685 54.2286 4.95685C54.6865 4.95685 55.0367 4.86082 55.2791 4.66876C55.527 4.4767 55.6509 4.22801 55.6509 3.92268C55.6509 3.63706 55.5323 3.41791 55.2953 3.26525C55.0583 3.11259 54.6892 2.96239 54.1882 2.81465C54.005 2.76048 53.8703 2.72108 53.7841 2.69646C53.7033 2.66691 53.5848 2.62505 53.4286 2.57088C53.2723 2.51179 53.1565 2.46008 53.0811 2.41576C53.0056 2.37144 52.9141 2.31234 52.8063 2.23847C52.704 2.1646 52.6285 2.09073 52.58 2.01686C52.5316 1.93807 52.4885 1.84697 52.4507 1.74355C52.413 1.63521 52.3942 1.51702 52.3942 1.38898C52.3942 0.970389 52.5558 0.635516 52.879 0.384362C53.2077 0.128284 53.6171 0.000244141 54.1074 0.000244141C54.5491 0.000244141 54.9263 0.101198 55.2387 0.303107C55.5512 0.505015 55.7802 0.766018 55.9256 1.08612L55.562 1.27079C55.2926 0.674913 54.8077 0.376975 54.1074 0.376975C53.7195 0.376975 53.4097 0.470543 53.178 0.657677C52.9464 0.844811 52.8306 1.08365 52.8306 1.37421C52.8306 1.65491 52.9383 1.8642 53.1538 2.00209C53.3693 2.13998 53.7222 2.28279 54.2124 2.43053C54.5249 2.5241 54.7673 2.60535 54.9397 2.6743C55.1175 2.73832 55.3061 2.82942 55.5054 2.94761C55.7101 3.06088 55.8583 3.19877 55.9499 3.36128C56.0415 3.51887 56.0872 3.70354 56.0872 3.9153C56.0872 4.34373 55.9175 4.68846 55.5781 4.94946C55.2387 5.20554 54.7889 5.33358 54.2286 5.33358Z" fill="#FCF2E6"/>
<path d="M61.5447 0.0814997H61.973V5.25232H61.5447V0.0814997Z" fill="#FCF2E6"/>
<path d="M73.2022 2.8442V3.04364C73.2022 3.68876 72.9517 4.23293 72.4507 4.67614C71.9497 5.11443 71.2897 5.33358 70.4708 5.33358C69.6088 5.33358 68.8977 5.0775 68.3374 4.56534C67.7771 4.04826 67.497 3.41545 67.497 2.66691C67.497 1.91837 67.7744 1.28802 68.3293 0.775868C68.8842 0.258785 69.5873 0.000244141 70.4385 0.000244141C70.9557 0.000244141 71.4298 0.11351 71.8608 0.340041C72.2971 0.566572 72.6339 0.869435 72.8709 1.24863L72.4911 1.45546C72.3025 1.13044 72.0224 0.869435 71.6507 0.672451C71.2843 0.475467 70.8803 0.376975 70.4385 0.376975C69.7058 0.376975 69.1024 0.598582 68.6283 1.0418C68.1596 1.48008 67.9253 2.02179 67.9253 2.66691C67.9253 3.31203 68.1623 3.8562 68.6364 4.29941C69.1105 4.7377 69.722 4.95685 70.4708 4.95685C71.1335 4.95685 71.6695 4.79187 72.079 4.46192C72.4884 4.13198 72.7174 3.71585 72.7659 3.21354H70.3658V2.8442H73.2022Z" fill="#FCF2E6"/>
<path d="M82.4376 0.0814997H82.8659V5.25232H82.486L79.1485 0.805415V5.25232H78.7202V0.0814997H79.092L82.4376 4.52841V0.0814997Z" fill="#FCF2E6"/>
<path d="M98.3368 5.11197L97.957 5.31142L97.3024 4.68353C96.8876 5.1169 96.3246 5.33358 95.6135 5.33358C95.0532 5.33358 94.606 5.20308 94.272 4.94207C93.938 4.67614 93.771 4.32157 93.771 3.87836C93.771 3.55334 93.868 3.25786 94.0619 2.99193C94.2559 2.72108 94.5333 2.51425 94.8943 2.37144C94.5926 2.05134 94.4417 1.714 94.4417 1.35943C94.4417 0.950691 94.5979 0.623205 94.9104 0.376975C95.2229 0.125821 95.6 0.000244141 96.0418 0.000244141C96.4027 0.000244141 96.726 0.0864244 97.0115 0.258785C97.297 0.431146 97.4991 0.669989 97.6176 0.975313L97.262 1.16737C97.1758 0.926067 97.0223 0.734008 96.8014 0.591195C96.5859 0.448382 96.3354 0.376975 96.0499 0.376975C95.7105 0.376975 95.4303 0.46808 95.2094 0.65029C94.9885 0.8325 94.8781 1.06396 94.8781 1.34466C94.8781 1.53672 94.9293 1.71154 95.0316 1.86913C95.134 2.02179 95.2875 2.19415 95.4923 2.38621L97.262 4.07781C97.4344 3.78726 97.5476 3.445 97.6014 3.05103L97.9812 3.25047C97.9058 3.67891 97.7658 4.05072 97.561 4.36589L98.3368 5.11197ZM95.5973 4.95685C96.1845 4.95685 96.6559 4.77217 97.0115 4.40283L95.1933 2.65952C94.8592 2.77279 94.6114 2.94023 94.4498 3.16183C94.2882 3.37851 94.2074 3.61489 94.2074 3.87097C94.2074 4.21077 94.3313 4.4767 94.5791 4.66876C94.8323 4.86082 95.1717 4.95685 95.5973 4.95685Z" fill="#FCF2E6"/>
<path d="M111.082 0.0814997C111.853 0.0814997 112.489 0.332654 112.99 0.834962C113.496 1.33235 113.749 1.943 113.749 2.66691C113.749 3.39083 113.496 4.00394 112.99 4.50625C112.489 5.00363 111.853 5.25232 111.082 5.25232H108.957V0.0814997H111.082ZM111.082 4.88298C111.74 4.88298 112.278 4.67122 112.699 4.2477C113.119 3.81927 113.329 3.29233 113.329 2.66691C113.329 2.04149 113.119 1.51702 112.699 1.0935C112.278 0.665064 111.74 0.450844 111.082 0.450844H109.385V4.88298H111.082Z" fill="#FCF2E6"/>
<path d="M119.701 4.88298H122.53V5.25232H119.273V0.0814997H122.489V0.450844H119.701V2.46008H122.287V2.82942H119.701V4.88298Z" fill="#FCF2E6"/>
<path d="M129.538 5.25232L127.429 0.0814997H127.897L129.764 4.74263L131.639 0.0814997H132.1L129.99 5.25232H129.538Z" fill="#FCF2E6"/>
<path d="M137.792 4.88298H140.621V5.25232H137.364V0.0814997H140.58V0.450844H137.792V2.46008H140.378V2.82942H137.792V4.88298Z" fill="#FCF2E6"/>
<path d="M146.546 4.88298H149.213V5.25232H146.118V0.0814997H146.546V4.88298Z" fill="#FCF2E6"/>
<path d="M158.808 4.55795C158.242 5.07504 157.553 5.33358 156.739 5.33358C155.926 5.33358 155.236 5.07504 154.67 4.55795C154.105 4.03595 153.822 3.4056 153.822 2.66691C153.822 1.92822 154.105 1.30034 154.67 0.783254C155.236 0.261248 155.926 0.000244141 156.739 0.000244141C157.553 0.000244141 158.242 0.261248 158.808 0.783254C159.374 1.30034 159.656 1.92822 159.656 2.66691C159.656 3.4056 159.374 4.03595 158.808 4.55795ZM154.969 4.29203C155.454 4.73524 156.044 4.95685 156.739 4.95685C157.434 4.95685 158.021 4.73524 158.501 4.29203C158.986 3.84389 159.228 3.30218 159.228 2.66691C159.228 2.03164 158.986 1.4924 158.501 1.04918C158.021 0.601044 157.434 0.376975 156.739 0.376975C156.044 0.376975 155.454 0.601044 154.969 1.04918C154.49 1.4924 154.25 2.03164 154.25 2.66691C154.25 3.30218 154.49 3.84389 154.969 4.29203Z" fill="#FCF2E6"/>
<path d="M167.11 0.0814997C167.617 0.0814997 168.037 0.234162 168.371 0.539487C168.705 0.844812 168.872 1.22647 168.872 1.68445C168.872 2.14244 168.705 2.5241 168.371 2.82942C168.037 3.12982 167.617 3.28002 167.11 3.28002H165.615V5.25232H165.187V0.0814997H167.11ZM167.11 2.91068C167.498 2.91068 167.816 2.79495 168.064 2.56349C168.317 2.33204 168.444 2.03903 168.444 1.68445C168.444 1.32496 168.317 1.02948 168.064 0.798028C167.816 0.566572 167.498 0.450844 167.11 0.450844H165.615V2.91068H167.11Z" fill="#FCF2E6"/>
<path d="M179.49 0.0814997V5.25232H179.062V0.657677L176.969 3.83404H176.896L174.803 0.657677V5.25232H174.375V0.0814997H174.908L176.928 3.13967L178.949 0.0814997H179.49Z" fill="#FCF2E6"/>
<path d="M185.766 4.88298H188.595V5.25232H185.338V0.0814997H188.554V0.450844H185.766V2.46008H188.352V2.82942H185.766V4.88298Z" fill="#FCF2E6"/>
<path d="M197.809 0.0814997H198.237V5.25232H197.857L194.52 0.805415V5.25232H194.091V0.0814997H194.463L197.809 4.52841V0.0814997Z" fill="#FCF2E6"/>
<path d="M207.559 0.0814997V0.450844H205.781V5.25232H205.344V0.450844H203.567V0.0814997H207.559Z" fill="#FCF2E6"/>
<path d="M219.812 2.57088C220.103 2.6743 220.337 2.83927 220.515 3.0658C220.693 3.29233 220.782 3.55087 220.782 3.84142C220.782 4.23047 220.631 4.56288 220.329 4.83866C220.028 5.11443 219.664 5.25232 219.238 5.25232H216.798V0.0814999H219.053C219.462 0.0814999 219.812 0.214463 220.103 0.480391C220.394 0.746319 220.539 1.06642 220.539 1.44069C220.539 1.68692 220.472 1.91099 220.337 2.11289C220.208 2.30988 220.033 2.46254 219.812 2.57088ZM219.053 0.450846H217.226V2.43053H219.053C219.343 2.43053 219.591 2.3345 219.796 2.14244C220.006 1.94546 220.111 1.71154 220.111 1.44069C220.111 1.16983 220.006 0.938378 219.796 0.746319C219.591 0.549335 219.343 0.450846 219.053 0.450846ZM219.238 4.88298C219.545 4.88298 219.807 4.78202 220.022 4.58012C220.243 4.37328 220.354 4.12705 220.354 3.84142C220.354 3.5558 220.243 3.31203 220.022 3.11013C219.807 2.90329 219.545 2.79988 219.238 2.79988H217.226V4.88298H219.238Z" fill="#FCF2E6"/>
<path d="M230 0.0814999L227.939 3.1249V5.25232H227.511V3.1249L225.45 0.0814999H225.935L227.729 2.74817L229.515 0.0814999H230Z" fill="#FCF2E6"/>
</svg>
