<?xml version="1.0" encoding="UTF-8"?> <svg xmlns="http://www.w3.org/2000/svg" width="68" height="68" viewBox="0 0 68 68" fill="none"><path d="M10 19H58V44.9556C58 47.7415 55.7415 50 52.9556 50H15.0444C12.2585 50 10 47.7415 10 44.9556V19Z" stroke="#FCF2E6" stroke-width="2"></path><path d="M58 19H67V23.4667C67 25.4181 65.4181 27 63.4667 27H58V19Z" stroke="#FCF2E6" stroke-width="2"></path><path d="M1 19H10V27H4.53333C2.58193 27 1 25.4181 1 23.4667V19Z" stroke="#FCF2E6" stroke-width="2"></path><path d="M23 61.7C23 64.6736 20.716 67 18 67C15.284 67 13 64.6736 13 61.7C13 61.0742 13.245 60.3349 13.71 59.5286C14.1692 58.7325 14.8019 57.9419 15.4747 57.2343C16.1457 56.5285 16.8345 55.9283 17.3853 55.5108C17.6326 55.3233 17.8414 55.1809 18 55.0845C18.1586 55.1809 18.3674 55.3233 18.6147 55.5108C19.1655 55.9283 19.8543 56.5285 20.5253 57.2343C21.1981 57.9419 21.8308 58.7325 22.29 59.5286C22.755 60.3349 23 61.0742 23 61.7ZM18.2097 54.9703C18.2298 54.9619 18.2284 54.9643 18.2095 54.9704L18.2097 54.9703ZM17.7905 54.9704C17.7716 54.9643 17.7702 54.9619 17.7903 54.9703L17.7905 54.9704Z" stroke="#FCF2E6" stroke-width="2"></path><path d="M40 61.7C40 64.6736 37.716 67 35 67C32.284 67 30 64.6736 30 61.7C30 61.0742 30.245 60.3349 30.71 59.5286C31.1692 58.7325 31.8019 57.9419 32.4747 57.2343C33.1457 56.5285 33.8345 55.9283 34.3853 55.5108C34.6326 55.3233 34.8414 55.1809 35 55.0845C35.1586 55.1809 35.3674 55.3233 35.6147 55.5108C36.1655 55.9283 36.8543 56.5285 37.5253 57.2343C38.1981 57.9419 38.8308 58.7325 39.29 59.5286C39.755 60.3349 40 61.0742 40 61.7ZM35.2097 54.9703C35.2298 54.9619 35.2284 54.9643 35.2095 54.9704L35.2097 54.9703ZM34.7905 54.9704C34.7716 54.9643 34.7702 54.9619 34.7903 54.9703L34.7905 54.9704Z" stroke="#FCF2E6" stroke-width="2"></path><path d="M56 61.7C56 64.6736 53.716 67 51 67C48.284 67 46 64.6736 46 61.7C46 61.0742 46.245 60.3349 46.71 59.5286C47.1692 58.7325 47.8019 57.9419 48.4747 57.2343C49.1457 56.5285 49.8345 55.9283 50.3853 55.5108C50.6326 55.3233 50.8414 55.1809 51 55.0845C51.1586 55.1809 51.3674 55.3233 51.6147 55.5108C52.1655 55.9283 52.8543 56.5285 53.5253 57.2343C54.1981 57.9419 54.8308 58.7325 55.29 59.5286C55.755 60.3349 56 61.0742 56 61.7ZM51.2097 54.9703C51.2298 54.9619 51.2284 54.9643 51.2095 54.9704L51.2097 54.9703ZM50.7905 54.9704C50.7716 54.9643 50.7702 54.9619 50.7903 54.9703L50.7905 54.9704Z" stroke="#FCF2E6" stroke-width="2"></path><line x1="1" y1="67" x2="67" y2="67" stroke="#FCF2E6" stroke-width="2" stroke-linecap="round"></line><path d="M21.9108 13.0889C21.659 12.801 21.1553 11.9663 21.1553 10.9301C21.1553 9.89394 22.6664 7.99426 22.6664 6.61267C22.6664 5.23108 22.0368 4.31002 21.7219 4.02219" stroke="#FCF2E6" stroke-width="2" stroke-linecap="round"></path><path d="M46.0895 13.0889C45.8377 12.7051 45.334 11.5922 45.334 10.2106C45.334 8.82899 46.8451 6.29608 46.8451 4.45397C46.8451 2.61185 46.2155 1.38377 45.9007 1" stroke="#FCF2E6" stroke-width="2" stroke-linecap="round"></path><path d="M29 11C29.7143 10.3333 31.7143 9 34 9C36.2857 9 38.2857 10.3333 39 11" stroke="#FCF2E6" stroke-width="2" stroke-linecap="round"></path></svg> 