<?xml version="1.0" encoding="UTF-8"?> <svg xmlns="http://www.w3.org/2000/svg" width="58" height="32" viewBox="0 0 58 32" fill="none"><g clip-path="url(#clip0)"><rect width="58" height="32" fill="#43322B"></rect><path d="M0 0H64V72H0V0Z" fill="#403029"></path><path fill-rule="evenodd" clip-rule="evenodd" d="M13.2048 7.54593L13.1839 7.52487L13.1628 7.50397L13.11 7.45118C13.0905 7.43634 13.0712 7.4211 13.0522 7.40545C12.3511 6.82999 11.2329 6.84549 10.4846 7.59381C9.88218 8.19623 9.75035 9.05197 10.0337 9.72599C10.4385 10.6891 10.0339 11.8015 9.10494 12.2795C8.92405 12.3725 8.75119 12.4964 8.59381 12.6538C7.79593 13.4517 7.83158 14.6598 8.52488 15.3531C8.5756 15.4038 8.62805 15.4503 8.68193 15.4929C9.11455 15.8349 9.38674 16.3404 9.43417 16.8899C9.48159 17.4393 9.30003 17.9839 8.93242 18.395C8.21895 19.1929 8.27557 20.3392 8.94476 21.0084C9.21227 21.2759 9.54219 21.4405 9.8974 21.5039C10.4689 21.6059 10.9679 21.9511 11.2648 22.45C11.5617 22.9489 11.6271 23.5522 11.4441 24.1032C11.2168 24.7877 11.3792 25.5191 11.8685 26.0084C12.3579 26.4977 13.0893 26.6601 13.7738 26.4327C14.3248 26.2497 14.9282 26.3151 15.4271 26.612C15.926 26.9089 16.2713 27.4079 16.3733 27.9795C16.4367 28.3347 16.6013 28.6647 16.8688 28.9322C17.538 29.6013 18.6843 29.658 19.4821 28.9446C19.8932 28.577 20.4379 28.3954 20.9873 28.4429C21.5367 28.4903 22.0422 28.7625 22.3842 29.1952C22.4268 29.2491 22.4734 29.3016 22.5241 29.3523C23.2174 30.0456 24.4255 30.0812 25.2234 29.2834C25.3808 29.126 25.5046 28.9532 25.5977 28.7723C26.0757 27.8433 27.1882 27.4387 28.1513 27.8437C28.8253 28.1271 29.6811 27.9953 30.2836 27.3928C31.0815 26.5949 31.0459 25.3869 30.3526 24.6936L30.3315 24.6727L13.2048 7.54593ZM14.321 5.85949L14.3339 5.84664L14.577 6.08976L14.5981 6.11066L14.619 6.13172L31.7457 23.2584L31.7668 23.2793C33.2742 24.7867 33.2433 27.2616 31.6978 28.807C30.5176 29.9872 28.7955 30.2842 27.3761 29.6873C27.1892 30.0506 26.943 30.3922 26.6376 30.6976C25.0963 32.2389 22.6306 32.2737 21.1221 30.7787C21.1181 30.7746 21.114 30.7706 21.1099 30.7665C21.0041 30.6607 20.9059 30.5501 20.8152 30.4355C20.691 30.5466 20.5615 30.6487 20.4278 30.7417C18.892 31.8104 16.7923 31.6841 15.4546 30.3464C15.1623 30.0541 14.9278 29.7254 14.751 29.3741C14.5841 29.0425 14.4686 28.6908 14.4044 28.3307C14.0384 28.4523 13.6593 28.5192 13.28 28.5313C12.2542 28.5639 11.2271 28.1954 10.4543 27.4226C9.68133 26.6496 9.31284 25.6223 9.34564 24.5963C9.35776 24.2173 9.42463 23.8385 9.5461 23.4728C9.18623 23.4086 8.83481 23.2932 8.50344 23.1265C8.15196 22.9496 7.82304 22.7151 7.53055 22.4226C6.19276 21.0848 6.06655 18.985 7.13537 17.4492C7.22839 17.3155 7.33046 17.1861 7.44157 17.0618C7.32695 16.9712 7.21642 16.873 7.11066 16.7673C7.10657 16.7632 7.10249 16.7591 7.09842 16.755C5.60345 15.2464 5.63832 12.7809 7.1796 11.2396C7.48498 10.9342 7.82664 10.688 8.18996 10.501C7.5933 9.08167 7.89029 7.35969 9.07039 6.1796C10.5245 4.72548 12.8014 4.61221 14.321 5.85949Z" fill="#503E37"></path><path fill-rule="evenodd" clip-rule="evenodd" d="M16.7425 21.5582C18.4837 23.2994 21.0426 23.7722 23.2863 22.9544C23.8052 22.7652 24.3792 23.0326 24.5683 23.5515C24.7574 24.0704 24.4901 24.6443 23.9712 24.8334C21.0444 25.9002 17.6542 25.2984 15.3283 22.9725C13.8134 21.4576 13.0278 19.486 12.9618 17.4879C12.9436 16.936 13.3763 16.4737 13.9282 16.4555C14.4802 16.4372 14.9425 16.8699 14.9607 17.4219C15.0108 18.9393 15.6049 20.4207 16.7425 21.5582Z" fill="#503E37"></path><path fill-rule="evenodd" clip-rule="evenodd" d="M50.6727 29.3313L50.6936 29.3523L50.7146 29.3732L50.7674 29.426C50.7869 29.4409 50.8062 29.4561 50.8253 29.4717C51.5264 30.0472 52.6445 30.0317 53.3928 29.2834C53.9953 28.681 54.1271 27.8252 53.8438 27.1512C53.4389 26.1881 53.8435 25.0757 54.7725 24.5977C54.9534 24.5047 55.1263 24.3808 55.2836 24.2234C56.0815 23.4255 56.0459 22.2174 55.3526 21.5241C55.3018 21.4734 55.2494 21.4269 55.1955 21.3843C54.7629 21.0423 54.4907 20.5368 54.4433 19.9873C54.3959 19.4379 54.5774 18.8933 54.945 18.4822C55.6585 17.6843 55.6019 16.538 54.9327 15.8688C54.6652 15.6013 54.3353 15.4367 53.98 15.3733C53.4085 15.2713 52.9095 14.9261 52.6126 14.4272C52.3157 13.9283 52.2503 13.325 52.4333 12.774C52.6606 12.0895 52.4983 11.3581 52.0089 10.8688C51.5196 10.3794 50.7881 10.2171 50.1036 10.4445C49.5526 10.6275 48.9493 10.5621 48.4503 10.2652C47.9514 9.96834 47.6061 9.46929 47.5041 8.89772C47.4408 8.54249 47.2761 8.21254 47.0086 7.94503C46.3394 7.27585 45.1932 7.21921 44.3953 7.93262C43.9842 8.30023 43.4396 8.48176 42.8901 8.43432C42.3407 8.38687 41.8352 8.11465 41.4932 7.68201C41.4506 7.62811 41.4041 7.57563 41.3533 7.52489C40.66 6.83159 39.4519 6.79595 38.6541 7.59382C38.4967 7.75119 38.3728 7.92403 38.2798 8.1049C37.8018 9.0339 36.6892 9.43847 35.7261 9.03351C35.0521 8.7501 34.1963 8.88191 33.5938 9.48437C32.7959 10.2823 32.8316 11.4903 33.5249 12.1836L33.5459 12.2045L50.6727 29.3313ZM49.5564 31.0177L49.5435 31.0306L49.3004 30.7874L49.2794 30.7665L49.2585 30.7455L32.1317 13.6187L32.1107 13.5978C30.6033 12.0905 30.6341 9.61563 32.1796 8.07016C33.3598 6.88998 35.0819 6.59303 36.5014 7.18986C36.6883 6.82658 36.9345 6.48496 37.2398 6.17961C38.7811 4.63832 41.2468 4.60346 42.7553 6.09851C42.7594 6.10255 42.7635 6.10661 42.7675 6.11067C42.8733 6.21648 42.9716 6.32705 43.0622 6.44173C43.1865 6.33061 43.3159 6.22852 43.4496 6.13549C44.9855 5.06682 47.0851 5.19308 48.4228 6.53081C48.7152 6.82314 48.9496 7.15184 49.1264 7.5031C49.2933 7.83468 49.4088 8.18636 49.4731 8.54649C49.8391 8.4249 50.2181 8.35799 50.5974 8.34592C51.6232 8.31327 52.6503 8.68176 53.4232 9.45459C54.1961 10.2276 54.5646 11.2549 54.5318 12.2809C54.5197 12.6599 54.4528 13.0387 54.3313 13.4044C54.6912 13.4686 55.0426 13.584 55.374 13.7507C55.7255 13.9276 56.0544 14.1621 56.3469 14.4546C57.6847 15.7924 57.8109 17.8922 56.7421 19.428C56.6491 19.5617 56.547 19.6911 56.4359 19.8154C56.5505 19.906 56.661 20.0042 56.7668 20.1099C56.7709 20.114 56.775 20.1181 56.779 20.1222C58.274 21.6307 58.2391 24.0963 56.6978 25.6376C56.3925 25.943 56.0508 26.1892 55.6875 26.3762C56.2841 27.7955 55.9872 29.5175 54.8071 30.6976C53.3529 32.1517 51.0761 32.265 49.5564 31.0177Z" fill="#503E37"></path><path fill-rule="evenodd" clip-rule="evenodd" d="M47.135 15.319C45.3938 13.5778 42.8349 13.105 40.5911 13.9228C40.0722 14.1119 39.4983 13.8446 39.3091 13.3257C39.12 12.8068 39.3873 12.2329 39.9062 12.0437C42.8331 10.977 46.2233 11.5788 48.5492 13.9047C50.0641 15.4196 50.8497 17.3912 50.9157 19.3893C50.9339 19.9412 50.5012 20.4035 49.9492 20.4217C49.3972 20.4399 48.935 20.0073 48.9167 19.4553C48.8666 17.9379 48.2725 16.4565 47.135 15.319Z" fill="#503E37"></path></g><defs><clipPath id="clip0"><rect width="58" height="32" fill="white"></rect></clipPath></defs></svg> 